<svg xmlns="http://www.w3.org/2000/svg" xmlns:xlink="http://www.w3.org/1999/xlink" id="processonSvg1000" viewBox="49.48333740234375 19.25 1015.7583312988281 355.875" width="1015.7583312988281" height="355.875"><defs id="ProcessOnDefs1001"><marker id="ProcessOnMarker1059" markerUnits="userSpaceOnUse" orient="auto" markerWidth="16.23606797749979" markerHeight="10.550836550532098" viewBox="-1.0 -1.3763819204711736 16.23606797749979 10.550836550532098" refX="-1.0" refY="3.8990363547948754"><path id="ProcessOnPath1060" d="M12.0 3.8990363547948754L0.0 7.798072709589751V0.0Z" stroke="#323232" stroke-width="2.0" fill="#323232" transform="matrix(1.0,0.0,0.0,1.0,0.0,0.0)"/></marker><marker id="ProcessOnMarker1066" markerUnits="userSpaceOnUse" orient="auto" markerWidth="16.23606797749979" markerHeight="10.550836550532098" viewBox="-1.0 -1.3763819204711736 16.23606797749979 10.550836550532098" refX="-1.0" refY="3.8990363547948754"><path id="ProcessOnPath1067" d="M12.0 3.8990363547948754L0.0 7.798072709589751V0.0Z" stroke="#323232" stroke-width="2.0" fill="#323232" transform="matrix(1.0,0.0,0.0,1.0,0.0,0.0)"/></marker><marker id="ProcessOnMarker1073" markerUnits="userSpaceOnUse" orient="auto" markerWidth="16.23606797749979" markerHeight="10.550836550532098" viewBox="-1.0 -1.3763819204711736 16.23606797749979 10.550836550532098" refX="-1.0" refY="3.8990363547948754"><path id="ProcessOnPath1074" d="M12.0 3.8990363547948754L0.0 7.798072709589751V0.0Z" stroke="#323232" stroke-width="2.0" fill="#323232" transform="matrix(1.0,0.0,0.0,1.0,0.0,0.0)"/></marker><marker id="ProcessOnMarker1077" markerUnits="userSpaceOnUse" orient="auto" markerWidth="16.23606797749979" markerHeight="10.550836550532098" viewBox="-1.0 -1.3763819204711736 16.23606797749979 10.550836550532098" refX="-1.0" refY="3.8990363547948754"><path id="ProcessOnPath1078" d="M12.0 3.8990363547948754L0.0 7.798072709589751V0.0Z" stroke="#323232" stroke-width="2.0" fill="#323232" transform="matrix(1.0,0.0,0.0,1.0,0.0,0.0)"/></marker><marker id="ProcessOnMarker1092" markerUnits="userSpaceOnUse" orient="auto" markerWidth="16.23606797749979" markerHeight="10.550836550532098" viewBox="-1.0 -1.3763819204711736 16.23606797749979 10.550836550532098" refX="-1.0" refY="3.8990363547948754"><path id="ProcessOnPath1093" d="M12.0 3.8990363547948754L0.0 7.798072709589751V0.0Z" stroke="#323232" stroke-width="2.0" fill="#323232" transform="matrix(1.0,0.0,0.0,1.0,0.0,0.0)"/></marker><marker id="ProcessOnMarker1096" markerUnits="userSpaceOnUse" orient="auto" markerWidth="16.23606797749979" markerHeight="10.550836550532098" viewBox="-1.0 -1.3763819204711736 16.23606797749979 10.550836550532098" refX="-1.0" refY="3.8990363547948754"><path id="ProcessOnPath1097" d="M12.0 3.8990363547948754L0.0 7.798072709589751V0.0Z" stroke="#323232" stroke-width="2.0" fill="#323232" transform="matrix(1.0,0.0,0.0,1.0,0.0,0.0)"/></marker><marker id="ProcessOnMarker1100" markerUnits="userSpaceOnUse" orient="auto" markerWidth="16.23606797749979" markerHeight="10.550836550532098" viewBox="-1.0 -1.3763819204711736 16.23606797749979 10.550836550532098" refX="-1.0" refY="3.8990363547948754"><path id="ProcessOnPath1101" d="M12.0 3.8990363547948754L0.0 7.798072709589751V0.0Z" stroke="#323232" stroke-width="2.0" fill="#323232" transform="matrix(1.0,0.0,0.0,1.0,0.0,0.0)"/></marker><marker id="ProcessOnMarker1104" markerUnits="userSpaceOnUse" orient="auto" markerWidth="16.23606797749979" markerHeight="10.550836550532098" viewBox="-1.0 -1.3763819204711736 16.23606797749979 10.550836550532098" refX="-1.0" refY="3.8990363547948754"><path id="ProcessOnPath1105" d="M12.0 3.8990363547948754L0.0 7.798072709589751V0.0Z" stroke="#323232" stroke-width="2.0" fill="#323232" transform="matrix(1.0,0.0,0.0,1.0,0.0,0.0)"/></marker><marker id="ProcessOnMarker1108" markerUnits="userSpaceOnUse" orient="auto" markerWidth="16.23606797749979" markerHeight="10.550836550532098" viewBox="-1.0 -1.3763819204711736 16.23606797749979 10.550836550532098" refX="-1.0" refY="3.8990363547948754"><path id="ProcessOnPath1109" d="M12.0 3.8990363547948754L0.0 7.798072709589751V0.0Z" stroke="#323232" stroke-width="2.0" fill="#323232" transform="matrix(1.0,0.0,0.0,1.0,0.0,0.0)"/></marker><marker id="ProcessOnMarker1112" markerUnits="userSpaceOnUse" orient="auto" markerWidth="16.23606797749979" markerHeight="10.550836550532098" viewBox="-1.0 -1.3763819204711736 16.23606797749979 10.550836550532098" refX="-1.0" refY="3.8990363547948754"><path id="ProcessOnPath1113" d="M12.0 3.8990363547948754L0.0 7.798072709589751V0.0Z" stroke="#323232" stroke-width="2.0" fill="#323232" transform="matrix(1.0,0.0,0.0,1.0,0.0,0.0)"/></marker></defs><g id="ProcessOnG1002"><path id="ProcessOnPath1003" d="M49.48333740234375 19.25H1065.2416687011719V375.125H49.48333740234375V19.25Z" fill="none"/><g id="ProcessOnG1004"><g id="ProcessOnG1005" transform="matrix(1.0,0.0,0.0,1.0,945.2416687011719,117.0)" opacity="1.0"><path id="ProcessOnPath1006" d="M0.0 0.0L100.0 0.0L100.0 49.0L0.0 49.0Z" stroke="#99ccff" stroke-width="2.0" stroke-dasharray="none" opacity="1.0" fill="#99ccff"/><g id="ProcessOnG1007" transform="matrix(1.0,0.0,0.0,1.0,10.0,16.375)"><text id="ProcessOnText1008" fill="#000000" font-weight="normal" font-style="normal" text-decoration="blink" font-family="微软雅黑" text-anchor="middle" font-size="13" x="40.0" y="13.325">dummies</text></g></g><g id="ProcessOnG1009" transform="matrix(1.0,0.0,0.0,1.0,799.0,117.0)" opacity="1.0"><path id="ProcessOnPath1010" d="M0.0 0.0L100.0 0.0L100.0 49.0L0.0 49.0Z" stroke="#99ccff" stroke-width="2.0" stroke-dasharray="none" opacity="1.0" fill="#ffb366"/><g id="ProcessOnG1011" transform="matrix(1.0,0.0,0.0,1.0,10.0,16.375)"><text id="ProcessOnText1012" fill="#000000" font-weight="normal" font-style="normal" text-decoration="blink" font-family="微软雅黑" text-anchor="middle" font-size="13" x="40.0" y="13.325">scale</text></g></g><g id="ProcessOnG1013" transform="matrix(1.0,0.0,0.0,1.0,633.0,117.0)" opacity="1.0"><path id="ProcessOnPath1014" d="M0.0 0.0L126.48333740234375 0.0L126.48333740234375 49.0L0.0 49.0Z" stroke="#99ccff" stroke-width="2.0" stroke-dasharray="none" opacity="1.0" fill="#99ccff"/><g id="ProcessOnG1015" transform="matrix(1.0,0.0,0.0,1.0,10.0,16.375)"><text id="ProcessOnText1016" fill="#000000" font-weight="normal" font-style="normal" text-decoration="blink" font-family="微软雅黑" text-anchor="middle" font-size="13" x="53.241668701171875" y="13.325">fillna | dropna</text></g></g><g id="ProcessOnG1017" transform="matrix(1.0,0.0,0.0,1.0,490.0,117.0)" opacity="1.0"><path id="ProcessOnPath1018" d="M0.0 0.0L100.0 0.0L100.0 49.0L0.0 49.0Z" stroke="#99ccff" stroke-width="2.0" stroke-dasharray="none" opacity="1.0" fill="#99ccff"/><g id="ProcessOnG1019" transform="matrix(1.0,0.0,0.0,1.0,10.0,16.375)"><text id="ProcessOnText1020" fill="#000000" font-weight="normal" font-style="normal" text-decoration="blink" font-family="微软雅黑" text-anchor="middle" font-size="13" x="40.0" y="13.325">factorize</text></g></g><g id="ProcessOnG1021" transform="matrix(1.0,0.0,0.0,1.0,209.0,188.0)" opacity="1.0"><path id="ProcessOnPath1022" d="M0.0 0.0L100.0 0.0L100.0 49.0L0.0 49.0Z" stroke="#99ccff" stroke-width="2.0" stroke-dasharray="none" opacity="1.0" fill="#99ccff"/><g id="ProcessOnG1023" transform="matrix(1.0,0.0,0.0,1.0,10.0,16.375)"><text id="ProcessOnText1024" fill="#000000" font-weight="normal" font-style="normal" text-decoration="blink" font-family="微软雅黑" text-anchor="middle" font-size="13" x="40.0" y="13.325">DataFrame</text></g></g><g id="ProcessOnG1025" transform="matrix(1.0,0.0,0.0,1.0,69.48333740234375,177.5)" opacity="1.0"><path id="ProcessOnPath1026" d="M23.333333333333332 0.0L100.0 0.0L76.66666666666667 70.0L0.0 70.0L23.333333333333332 0.0Z" stroke="#33ffff" stroke-width="2.0" stroke-dasharray="none" opacity="1.0" fill="#66b2ff"/><g id="ProcessOnG1027" transform="matrix(1.0,0.0,0.0,1.0,15.0,26.875)"><text id="ProcessOnText1028" fill="#000000" font-weight="normal" font-style="normal" text-decoration="blink" font-family="微软雅黑" text-anchor="middle" font-size="13" x="35.0" y="13.325">Raw Data</text></g></g><g id="ProcessOnG1029" transform="matrix(1.0,0.0,0.0,1.0,492.2583312988281,278.0)" opacity="1.0"><path id="ProcessOnPath1030" d="M0.0 0.0L100.0 0.0L100.0 49.0L0.0 49.0Z" stroke="#99ccff" stroke-width="2.0" stroke-dasharray="none" opacity="1.0" fill="#ffb366"/><g id="ProcessOnG1031" transform="matrix(1.0,0.0,0.0,1.0,10.0,8.25)"><text id="ProcessOnText1032" fill="#000000" font-weight="normal" font-style="normal" text-decoration="blink" font-family="微软雅黑" text-anchor="middle" font-size="13" x="40.0" y="13.325">label</text><text id="ProcessOnText1033" fill="#000000" font-weight="normal" font-style="normal" text-decoration="blink" font-family="微软雅黑" text-anchor="middle" font-size="13" x="40.0" y="29.575">encoder</text></g></g><g id="ProcessOnG1034" transform="matrix(1.0,0.0,0.0,1.0,945.2416687011719,278.0)" opacity="1.0"><path id="ProcessOnPath1035" d="M0.0 0.0L100.0 0.0L100.0 49.0L0.0 49.0Z" stroke="#99ccff" stroke-width="2.0" stroke-dasharray="none" opacity="1.0" fill="#ffb366"/><g id="ProcessOnG1036" transform="matrix(1.0,0.0,0.0,1.0,10.0,8.25)"><text id="ProcessOnText1037" fill="#000000" font-weight="normal" font-style="normal" text-decoration="blink" font-family="微软雅黑" text-anchor="middle" font-size="13" x="40.0" y="13.325">onehot enco</text><text id="ProcessOnText1038" fill="#000000" font-weight="normal" font-style="normal" text-decoration="blink" font-family="微软雅黑" text-anchor="middle" font-size="13" x="40.0" y="29.575">der</text></g></g><g id="ProcessOnG1039" transform="matrix(1.0,0.0,0.0,1.0,806.0,278.0)" opacity="1.0"><path id="ProcessOnPath1040" d="M0.0 0.0L100.0 0.0L100.0 49.0L0.0 49.0Z" stroke="#99ccff" stroke-width="2.0" stroke-dasharray="none" opacity="1.0" fill="#ffb366"/><g id="ProcessOnG1041" transform="matrix(1.0,0.0,0.0,1.0,10.0,16.375)"><text id="ProcessOnText1042" fill="#000000" font-weight="normal" font-style="normal" text-decoration="blink" font-family="微软雅黑" text-anchor="middle" font-size="13" x="40.0" y="13.325">scale</text></g></g><g id="ProcessOnG1043" transform="matrix(1.0,0.0,0.0,1.0,651.0,278.0)" opacity="1.0"><path id="ProcessOnPath1044" d="M0.0 0.0L100.0 0.0L100.0 49.0L0.0 49.0Z" stroke="#99ccff" stroke-width="2.0" stroke-dasharray="none" opacity="1.0" fill="#ffb366"/><g id="ProcessOnG1045" transform="matrix(1.0,0.0,0.0,1.0,10.0,16.375)"><text id="ProcessOnText1046" fill="#000000" font-weight="normal" font-style="normal" text-decoration="blink" font-family="微软雅黑" text-anchor="middle" font-size="13" x="40.0" y="13.325">imputer</text></g></g><g id="ProcessOnG1047" transform="matrix(1.0,0.0,0.0,1.0,645.0,63.25)" opacity="1.0"><path id="ProcessOnPath1048" d="M0.0 0.0L90.51666259765625 0.0L90.51666259765625 27.0L0.0 27.0Z" stroke="#323232" stroke-width="0.0" stroke-dasharray="none" opacity="1.0" fill="none"/><g id="ProcessOnG1049" transform="matrix(1.0,0.0,0.0,1.0,0.0,-2.75)"><text id="ProcessOnText1050" fill="#000000" font-weight="normal" font-style="normal" text-decoration="blink" font-family="Lucida Console" text-anchor="middle" font-size="13" x="45.258331298828125" y="13.325">missing val</text><text id="ProcessOnText1051" fill="#000000" font-weight="normal" font-style="normal" text-decoration="blink" font-family="Lucida Console" text-anchor="middle" font-size="13" x="45.258331298828125" y="29.575">ue</text></g></g><g id="ProcessOnG1052" transform="matrix(1.0,0.0,0.0,1.0,346.48333740234375,177.5)" opacity="1.0"><path id="ProcessOnPath1053" d="M0.0 35.0L45.0 0.0L90.0 35.0L45.0 70.0L0.0 35.0Z" stroke="#323232" stroke-width="2.0" stroke-dasharray="none" opacity="1.0" fill="#99ff99"/><g id="ProcessOnG1054" transform="matrix(1.0,0.0,0.0,1.0,10.0,18.75)"><text id="ProcessOnText1055" fill="#000000" font-weight="normal" font-style="normal" text-decoration="blink" font-family="微软雅黑" text-anchor="middle" font-size="13" x="35.0" y="13.325">pandas</text><text id="ProcessOnText1056" fill="#000000" font-weight="normal" font-style="normal" text-decoration="blink" font-family="微软雅黑" text-anchor="middle" font-size="13" x="35.0" y="29.575">way?</text></g></g><g id="ProcessOnG1057"><path id="ProcessOnPath1058" d="M391.48333740234375 177.5L391.48333740234375 141.5L474.7639320225002 141.5" stroke="#323232" stroke-width="2.0" stroke-dasharray="none" fill="none" marker-end="url(#ProcessOnMarker1059)"/><g id="ProcessOnG1061" transform="matrix(1.0,0.0,0.0,1.0,415.123634712422,133.375)"><path id="ProcessOnPath1062" d="M0 0H8.0V16.25H0Z" fill="#fff" transform="matrix(1.0,0.0,0.0,1.0,-4.0,0.0)"/><text id="ProcessOnText1063" fill="#000000" font-weight="normal" font-style="normal" text-decoration="blink" font-family="微软雅黑" text-anchor="middle" font-size="13" x="0.0" y="13.325">Y</text></g></g><g id="ProcessOnG1064"><path id="ProcessOnPath1065" d="M391.48333740234375 247.5L391.48333740234375 302.5L477.02226332132835 302.5" stroke="#323232" stroke-width="2.0" stroke-dasharray="none" fill="none" marker-end="url(#ProcessOnMarker1066)"/><g id="ProcessOnG1068" transform="matrix(1.0,0.0,0.0,1.0,406.7528003618361,294.375)"><path id="ProcessOnPath1069" d="M0 0H11.0V16.25H0Z" fill="#fff" transform="matrix(1.0,0.0,0.0,1.0,-5.5,0.0)"/><text id="ProcessOnText1070" fill="#000000" font-weight="normal" font-style="normal" text-decoration="blink" font-family="微软雅黑" text-anchor="middle" font-size="13" x="0.0" y="13.325">N</text></g></g><g id="ProcessOnG1071"><path id="ProcessOnPath1072" d="M157.81667073567706 212.5L183.40833536783853 212.5L183.40833536783853 212.5L193.7639320225002 212.5" stroke="#323232" stroke-width="2.0" stroke-dasharray="none" fill="none" marker-end="url(#ProcessOnMarker1073)"/></g><g id="ProcessOnG1075"><path id="ProcessOnPath1076" d="M309.0 212.5L327.7416687011719 212.5L327.7416687011719 212.5L331.247269424844 212.5" stroke="#323232" stroke-width="2.0" stroke-dasharray="none" fill="none" marker-end="url(#ProcessOnMarker1077)"/></g><g id="ProcessOnG1079" transform="matrix(1.0,0.0,0.0,1.0,497.0,58.25)" opacity="1.0"><path id="ProcessOnPath1080" d="M0.0 0.0L90.51666259765625 0.0L90.51666259765625 27.0L0.0 27.0Z" stroke="#323232" stroke-width="0.0" stroke-dasharray="none" opacity="1.0" fill="none"/><g id="ProcessOnG1081" transform="matrix(1.0,0.0,0.0,1.0,0.0,-10.875)"><text id="ProcessOnText1082" fill="#000000" font-weight="normal" font-style="normal" text-decoration="blink" font-family="Lucida Console" text-anchor="middle" font-size="13" x="45.258331298828125" y="13.325">Encoding ca</text><text id="ProcessOnText1083" fill="#000000" font-weight="normal" font-style="normal" text-decoration="blink" font-family="Lucida Console" text-anchor="middle" font-size="13" x="45.258331298828125" y="29.575">tegorical f</text><text id="ProcessOnText1084" fill="#000000" font-weight="normal" font-style="normal" text-decoration="blink" font-family="Lucida Console" text-anchor="middle" font-size="13" x="45.258331298828125" y="45.825">eatures</text></g></g><g id="ProcessOnG1085" transform="matrix(1.0,0.0,0.0,1.0,949.9833374023438,63.25)" opacity="1.0"><path id="ProcessOnPath1086" d="M0.0 0.0L90.51666259765625 0.0L90.51666259765625 27.0L0.0 27.0Z" stroke="#323232" stroke-width="0.0" stroke-dasharray="none" opacity="1.0" fill="none"/><g id="ProcessOnG1087" transform="matrix(1.0,0.0,0.0,1.0,0.0,-2.75)"><text id="ProcessOnText1088" fill="#000000" font-weight="normal" font-style="normal" text-decoration="blink" font-family="Lucida Console" text-anchor="middle" font-size="13" x="45.258331298828125" y="13.325">onehot enco</text><text id="ProcessOnText1089" fill="#000000" font-weight="normal" font-style="normal" text-decoration="blink" font-family="Lucida Console" text-anchor="middle" font-size="13" x="45.258331298828125" y="29.575">der</text></g></g><g id="ProcessOnG1090"><path id="ProcessOnPath1091" d="M590.0 141.5L611.5 141.5L611.5 141.5L617.7639320225002 141.5" stroke="#323232" stroke-width="2.0" stroke-dasharray="none" fill="none" marker-end="url(#ProcessOnMarker1092)"/></g><g id="ProcessOnG1094"><path id="ProcessOnPath1095" d="M759.4833374023438 141.5L779.2416687011719 141.5L779.2416687011719 141.5L783.7639320225002 141.5" stroke="#323232" stroke-width="2.0" stroke-dasharray="none" fill="none" marker-end="url(#ProcessOnMarker1096)"/></g><g id="ProcessOnG1098"><path id="ProcessOnPath1099" d="M899.0 141.5L922.1208343505859 141.5L922.1208343505859 141.5L930.005600723672 141.5" stroke="#323232" stroke-width="2.0" stroke-dasharray="none" fill="none" marker-end="url(#ProcessOnMarker1100)"/></g><g id="ProcessOnG1102"><path id="ProcessOnPath1103" d="M592.2583312988281 302.5L621.6291656494141 302.5L621.6291656494141 302.5L635.7639320225002 302.5" stroke="#323232" stroke-width="2.0" stroke-dasharray="none" fill="none" marker-end="url(#ProcessOnMarker1104)"/></g><g id="ProcessOnG1106"><path id="ProcessOnPath1107" d="M751.0 302.5L778.5 302.5L778.5 302.5L790.7639320225002 302.5" stroke="#323232" stroke-width="2.0" stroke-dasharray="none" fill="none" marker-end="url(#ProcessOnMarker1108)"/></g><g id="ProcessOnG1110"><path id="ProcessOnPath1111" d="M906.0 302.5L925.6208343505859 302.5L925.6208343505859 302.5L930.005600723672 302.5" stroke="#323232" stroke-width="2.0" stroke-dasharray="none" fill="none" marker-end="url(#ProcessOnMarker1112)"/></g><g id="ProcessOnG1114" transform="matrix(1.0,0.0,0.0,1.0,119.48333740234375,39.25)" opacity="1.0"><path id="ProcessOnPath1115" d="M0.0 70.0L0.0 0.0L177.0 0.0L177.0 70.0Q132.75 50.0 88.5 70.0Q44.25 90.0 0.0 70.0Z" stroke="#323232" stroke-width="2.0" stroke-dasharray="none" opacity="1.0" fill="#e6ffcc"/><g id="ProcessOnG1116" transform="matrix(1.0,0.0,0.0,1.0,0.0,19.75)"><text id="ProcessOnText1117" fill="#000000" font-weight="normal" font-style="normal" text-decoration="blink" font-family="微软雅黑" text-anchor="middle" font-size="13" x="88.5" y="13.325">Data preprocessing</text><text id="ProcessOnText1118" fill="#000000" font-weight="normal" font-style="normal" text-decoration="blink" font-family="微软雅黑" text-anchor="middle" font-size="13" x="88.5" y="29.575">with pandas or sklearn</text></g></g><g id="ProcessOnG1119" transform="matrix(1.0,0.0,0.0,1.0,129.25833129882812,289.0)" opacity="1.0"><path id="ProcessOnPath1120" d="M0.0 0.0L66.22500610351562 0.0L66.22500610351562 20.0L0.0 20.0Z" stroke="#99ccff" stroke-width="2.0" stroke-dasharray="none" opacity="1.0" fill="#ffb366"/></g><g id="ProcessOnG1121" transform="matrix(1.0,0.0,0.0,1.0,130.4437484741211,334.0)" opacity="1.0"><path id="ProcessOnPath1122" d="M0.0 0.0L63.85417175292969 0.0L63.85417175292969 20.25L0.0 20.25Z" stroke="#99ccff" stroke-width="2.0" stroke-dasharray="none" opacity="1.0" fill="#99ccff"/></g><g id="ProcessOnG1123" transform="matrix(1.0,0.0,0.0,1.0,209.48333740234375,288.0)" opacity="1.0"><path id="ProcessOnPath1124" d="M0.0 0.0L70.0 0.0L70.0 22.0L0.0 22.0Z" stroke="#323232" stroke-width="0.0" stroke-dasharray="none" opacity="1.0" fill="none"/><g id="ProcessOnG1125" transform="matrix(1.0,0.0,0.0,1.0,0.0,2.875)"><text id="ProcessOnText1126" fill="#000000" font-weight="normal" font-style="normal" text-decoration="blink" font-family="Lucida Console" text-anchor="middle" font-size="13" x="35.0" y="13.325">sklearn</text></g></g><g id="ProcessOnG1127" transform="matrix(1.0,0.0,0.0,1.0,209.48333740234375,333.125)" opacity="1.0"><path id="ProcessOnPath1128" d="M0.0 0.0L70.0 0.0L70.0 22.0L0.0 22.0Z" stroke="#323232" stroke-width="0.0" stroke-dasharray="none" opacity="1.0" fill="none"/><g id="ProcessOnG1129" transform="matrix(1.0,0.0,0.0,1.0,0.0,2.875)"><text id="ProcessOnText1130" fill="#000000" font-weight="normal" font-style="normal" text-decoration="blink" font-family="Lucida Console" text-anchor="middle" font-size="13" x="35.0" y="13.325">pandas</text></g></g><g id="ProcessOnG1131" transform="matrix(1.0,0.0,0.0,1.0,803.7416687011719,59.25)" opacity="1.0"><path id="ProcessOnPath1132" d="M0.0 0.0L90.51666259765625 0.0L90.51666259765625 27.0L0.0 27.0Z" stroke="#323232" stroke-width="0.0" stroke-dasharray="none" opacity="1.0" fill="none"/><g id="ProcessOnG1133" transform="matrix(1.0,0.0,0.0,1.0,0.0,-10.875)"><text id="ProcessOnText1134" fill="#000000" font-weight="normal" font-style="normal" text-decoration="blink" font-family="Lucida Console" text-anchor="middle" font-size="13" x="45.258331298828125" y="13.325">scale the c</text><text id="ProcessOnText1135" fill="#000000" font-weight="normal" font-style="normal" text-decoration="blink" font-family="Lucida Console" text-anchor="middle" font-size="13" x="45.258331298828125" y="29.575">ontinuous f</text><text id="ProcessOnText1136" fill="#000000" font-weight="normal" font-style="normal" text-decoration="blink" font-family="Lucida Console" text-anchor="middle" font-size="13" x="45.258331298828125" y="45.825">eatures</text></g></g></g></g></svg>